<?xml version="1.0" encoding="UTF-8"?><svg id="Livello_2" xmlns="http://www.w3.org/2000/svg" viewBox="0 0 71.74 98.25"><defs><style>.cls-1{fill:#912f62;}</style></defs><g id="Livello_1-2"><path class="cls-1" d="M70.43,55.15c-1.5-4.6-5.7-7.6-10.6-7.6h-1v-1c0-4.9-3.1-9.1-7.6-10.6-1.9-.6-4.8-1.3-8.3-1.4,1.5-2.4,3-4.7,4.6-6.8,4.2-5.6,3.8-11.2-1.1-15-2-1.5-6.1-3.5-11.7-.1v-.3C35.83,5.25,31.23,1.05,26.53,.15c-5.3-1-9.9,3.2-11.1,7.7-.5,2-1.2,4.9-1.9,8.2-1.2-.3-2.5-.4-4.1-.3C5.33,16.05,.43,19.05,.03,26.35c-.4,8.5,4,32,8.8,46.4,.6,2.4,1.5,4.8,2.6,7.1,5.3,11.1,14.2,17.1,27.2,18.3,1,.1,1.9,.1,2.9,.1,7.3,0,17.5-2.4,24.8-14,5.1-7.8,6.9-20.6,4.1-29.1ZM15.53,35.65c1.5-11.5,3.7-22,4.9-26.4,.6-2.1,2.6-4.1,4.7-4.1,.2,0,.4,0,.6,.1,2.2,.4,4.6,2.3,4,6.3-.5,3.6-.8,5.4-.9,6.2-3.7,4.1-8.9,10.3-13.3,17.9Zm27.9-11c-3.4,4.6-5.9,8.8-6.9,10.6-6.6,1.6-12.2,5.9-16.4,12.9-.4,.6-.5,1.3-.3,2s.6,1.2,1.2,1.6c.6,.4,1.3,.5,2,.3s1.2-.6,1.6-1.2c8.1-13.1,19.2-11.9,25.1-9.9,2.8,.9,4.1,3.5,4.1,5.7,0,1.6-.6,3.1-1.8,4.3-1.6,1.6-4,2.2-6,1.5-4.2-1.4-9.4,.1-13,3.7-5.3,5.3-6,13.2-1.7,18,2.7,3,6.8,4.8,10.9,4.9,3.3,.1,6.2-.9,8.2-2.9,4.6-4.6,5.2-11.2,3.8-15.6-.7-2.1-.1-4.4,1.5-6,1.1-1.1,2.7-1.8,4.3-1.8,2.7,0,4.9,1.6,5.7,4.1,2.3,7.1,.8,18.1-3.3,24.7l-.1,.1c-6.7,10.6-16.1,12-22.9,11.4-6.7-.6-16.3-2.7-22.3-14,0-.2-.1-.4-.2-.5-.9-1.8-1.8-4.2-2.8-7.1-6.1-23.1,14-45.5,20.3-51.8,3.7-3.7,6.7-4.7,9.1-2.9,.8,.9,3.6,3-.1,7.9Zm-1.2,49.1c-2.8-.1-5.5-1.3-7.2-3.2-2.7-3-1.4-8,1.5-10.9,1.8-1.8,3.9-2.8,6-2.8,.6,0,1.2,.1,1.7,.3,1.4,.5,2.9,.6,4.4,.5-.1,1.5,0,2.9,.5,4.4,1,2.9,.6,7.3-2.5,10.3-.9,1-2.5,1.5-4.4,1.4ZM9.13,51.35c-.1,.3-.2,.7-.2,1-2.4-11.1-3.8-21-3.6-25.7,.2-5,3.6-5.6,4.6-5.7h.9c.9,0,1.4,.1,1.8,.3-1.2,6.5-3.2,18.7-3.5,30.1h0Z"/></g></svg>