<?xml version="1.0" encoding="UTF-8"?><svg id="Livello_2" xmlns="http://www.w3.org/2000/svg" viewBox="0 0 79.11 94.25"><defs><style>.cls-1{fill:#912f62;}</style></defs><g id="Livello_1-2"><g><path class="cls-1" d="M67.5,11.55h0C52.1-3.85,27-3.85,11.6,11.55,4.1,19.05,0,28.95,0,39.55s4.1,20.5,11.6,28l25.8,25.8c.6,.6,1.4,.9,2.1,.9s1.5-.3,2.1-.9l25.8-25.8c15.6-15.5,15.6-40.6,.1-56Zm-4.2,51.7l-23.7,23.7L15.9,63.25c-6.3-6.3-9.8-14.8-9.8-23.7s3.5-17.4,9.8-23.7c6.5-6.5,15.1-9.8,23.7-9.8s17.2,3.3,23.7,9.8c13.1,13,13.1,34.3,0,47.4Z"/><circle class="cls-1" cx="39.6" cy="39.45" r="21"/></g></g></svg>