<?xml version="1.0" encoding="UTF-8"?><svg id="Livello_2" xmlns="http://www.w3.org/2000/svg" viewBox="0 0 78.7 92.19"><defs><style>.cls-1{fill:#912f62;}</style></defs><g id="Livello_1-2"><g><path class="cls-1" d="M75.7,11.29h-8.7V3.29c0-2.1-2-3.7-4-3.2L15,11.29h-1.2c-1.7,0-3,1.3-3,3v10.8H3c-1.7,0-3,1.3-3,3s1.3,3,3,3h7.8v41.3H3c-1.7,0-3,1.3-3,3s1.3,3,3,3h7.8v10.8c0,1.7,1.3,3,3,3h61.9c1.7,0,3-1.3,3-3V14.29c0-1.6-1.3-3-3-3Zm-3,74.9H16.8v-7.8h7.3c1.7,0,3-1.3,3-3s-1.3-3-3-3h-7.3V31.09h7.3c1.7,0,3-1.3,3-3s-1.3-3-3-3h-7.3v-7.8h55.9V86.19Z"/><path class="cls-1" d="M31.6,60.89h4.2c.3,0,.6-.3,.6-.6v-11.9c0-.3,.2-.5,.5-.5,2.7,.1,5.1,1.1,7.1,2.7,.2,.2,.5,.2,.7,0,2-1.6,4.4-2.5,7.1-2.7,.3,0,.5,.2,.5,.5v11.9c0,.3,.3,.6,.6,.6h4.3c.3,0,.5-.2,.5-.5v-10.1c0-4.7-3.3-8.1-7.7-8.1-2.5,0-4.5,1.2-5.7,3.3-1.2-2.1-3.2-3.3-5.7-3.3-4.4,0-7.7,3.4-7.7,8.1v10.1c.2,.3,.4,.5,.7,.5Z"/><path class="cls-1" d="M63,61.39c1.9,0,3.2-1.4,3.2-3.3,0-1.8-1.4-3.2-3.2-3.2s-3.2,1.4-3.2,3.2c0,1.9,1.4,3.3,3.2,3.3Z"/></g></g></svg>