<?xml version="1.0" encoding="UTF-8"?><svg id="Livello_2" xmlns="http://www.w3.org/2000/svg" viewBox="0 0 152.6 101.1"><defs><style>.cls-1{fill:#912f62;}</style></defs><g id="Livello_1-2"><g><path class="cls-1" d="M31.2,0c-1.7,0-3,1.3-3,3V23.6c0,5.1-3.4,9.4-8.1,10.7V3C20.1,1.3,18.8,0,17.1,0s-3,1.3-3,3v31.3c-4.7-1.3-8.1-5.6-8.1-10.7V3c0-1.7-1.3-3-3-3S0,1.3,0,3V23.6c0,8.4,6.1,15.4,14.1,16.9v57.6c0,1.7,1.3,3,3,3s3-1.3,3-3V40.5c8-1.4,14.1-8.4,14.1-16.9V3c0-1.7-1.3-3-3-3Z"/><path class="cls-1" d="M149.6,0c-.6,0-1.2,.2-1.6,.5-4,.5-7.2,3.6-7.7,7.6l-5.3,37.5c-.8,5.4,3.4,10.2,8.8,10.2h2.8v42.3c0,1.7,1.3,3,3,3s3-1.3,3-3V3c0-1.7-1.4-3-3-3Z"/><path class="cls-1" d="M81.9,3.2c-25.9,0-47,21.1-47,47s21.1,47,47,47,47-21.1,47-47S107.9,3.2,81.9,3.2Zm0,88c-22.6,0-41-18.4-41-41S59.3,9.2,81.9,9.2s41,18.4,41,41-18.4,41-41,41Z"/></g></g></svg>